<?xml version="1.0" standalone="no"?>
<!DOCTYPE svg PUBLIC "-//W3C//DTD SVG 20010904//EN"
 "http://www.w3.org/TR/2001/REC-SVG-20010904/DTD/svg10.dtd">
<svg version="1.0" xmlns="http://www.w3.org/2000/svg"
 width="474.000000pt" height="143.000000pt" viewBox="0 0 474.000000 143.000000"
 preserveAspectRatio="xMidYMid meet">

<g transform="translate(0.000000,143.000000) scale(0.100000,-0.100000)"
fill="#000000" stroke="none">
<path d="M92 1228 l2 -53 3 48 4 47 449 0 449 0 4 -57 3 -58 2 63 2 62 -460 0
-460 0 2 -52z"/>
<path d="M114 1193 c3 -32 15 -218 26 -413 12 -195 23 -378 26 -406 l5 -51
117 -58 c64 -31 147 -71 185 -87 l67 -31 175 73 c96 40 183 79 194 86 16 11
20 31 25 131 9 162 34 533 46 675 6 64 10 121 10 127 0 8 -132 11 -441 11
l-441 0 6 -57z m160 39 c3 -5 -8 -28 -24 -53 -19 -28 -26 -45 -18 -48 6 -2 17
4 23 13 15 20 71 21 79 1 5 -14 36 -22 36 -9 0 3 -11 22 -25 42 -37 54 -33 62
27 62 l52 0 -22 -20 c-58 -54 17 -113 102 -80 30 11 35 40 7 40 -11 0 -26 3
-35 6 -9 3 -16 1 -16 -5 0 -6 9 -11 20 -11 11 0 20 -5 20 -11 0 -18 -72 -6
-84 14 -17 28 18 50 69 41 36 -6 38 -5 26 10 -12 14 -8 16 38 16 29 0 51 -5
51 -11 0 -5 -11 -27 -25 -47 -14 -20 -25 -40 -25 -44 0 -14 28 -8 34 7 7 20
63 19 74 -1 5 -9 16 -14 25 -13 14 3 12 11 -13 49 -16 25 -30 48 -30 53 0 4
18 7 40 7 l40 0 0 -55 c0 -42 3 -55 15 -55 10 0 15 10 15 33 l1 32 24 -30 25
-30 25 30 24 30 1 -32 c0 -22 5 -33 14 -33 11 0 16 15 18 53 l3 52 43 0 c23 0
42 -3 42 -7 0 -5 0 -33 0 -63 l0 -55 -419 0 -419 0 -4 61 c-1 33 -1 63 1 65 8
8 140 4 145 -4z m566 -1 c0 -5 -9 -19 -19 -32 l-19 -24 -20 25 c-11 14 -18 28
-15 32 6 11 73 10 73 -1z m-530 -46 c0 -8 -7 -15 -15 -15 -16 0 -20 12 -8 23
11 12 23 8 23 -8z m325 6 c7 -12 -12 -24 -25 -16 -11 7 -4 25 10 25 5 0 11 -4
15 -9z m-55 -141 c10 0 10 -3 0 -15 -6 -8 -9 -18 -6 -23 3 -5 -8 -9 -25 -9
-19 0 -28 5 -25 12 2 7 -1 18 -7 24 -8 8 -7 11 6 11 9 0 17 8 17 18 1 16 1 16
14 0 7 -10 19 -18 26 -18z m-183 -38 c-10 -10 -17 -24 -17 -30 0 -18 -40 -14
-47 3 -3 9 -2 19 2 23 4 4 10 1 12 -5 3 -7 9 -13 14 -13 6 0 8 4 4 9 -6 10 35
44 44 36 2 -3 -3 -13 -12 -23z m320 1 c-15 -16 -17 -16 -17 -1 0 9 6 18 13 21
20 7 22 -2 4 -20z m33 -18 c-7 -9 -15 -13 -17 -11 -7 7 7 26 19 26 6 0 6 -6
-2 -15z m40 -14 c0 -10 -24 -21 -43 -21 -7 0 -3 7 7 15 22 17 36 19 36 6z
m-453 -27 c9 4 13 1 11 -6 -6 -16 -20 -20 -37 -9 -9 6 -11 15 -6 27 8 18 8 18
12 1 3 -12 10 -16 20 -13z m223 8 c0 -5 16 -30 36 -55 30 -39 34 -49 24 -62
-15 -18 -30 -11 -30 15 0 10 -11 38 -25 61 -19 34 -25 39 -25 22 0 -12 -4 -25
-10 -28 -5 -3 -14 -24 -20 -46 -9 -34 -14 -38 -26 -29 -21 18 -18 28 23 81 35
46 53 60 53 41z m246 -27 c-22 -17 -36 -19 -36 -7 0 14 12 22 34 22 21 -1 21
-1 2 -15z m-516 -16 c0 -6 7 -8 16 -5 10 4 14 1 12 -6 -7 -19 -42 -15 -46 5
-2 9 1 17 7 17 6 0 11 -5 11 -11z m550 -19 c0 -5 -4 -10 -9 -10 -5 0 -18 -3
-28 -7 -16 -6 -16 -5 -4 10 15 19 41 23 41 7z m-530 -29 c0 -12 -46 -41 -54
-34 -12 12 -6 32 8 27 8 -3 17 -1 21 5 8 13 25 14 25 2z m550 -20 c0 -9 -41
-23 -48 -16 -2 2 -1 8 3 14 8 13 45 15 45 2z m-282 -46 c12 -19 22 -42 22 -50
0 -9 10 -29 21 -44 12 -16 18 -34 15 -40 -11 -18 -64 -13 -76 7 -10 16 -10 16
-20 0 -14 -23 -68 -24 -77 -2 -3 8 4 25 17 39 12 13 19 28 16 34 -7 10 41 91
53 91 3 0 16 -16 29 -35z m-278 20 c0 -2 -10 -13 -22 -24 -23 -22 -38 -19 -38
7 0 15 2 15 10 2 9 -13 12 -13 21 3 9 15 29 24 29 12z m557 -31 c31 -8 19 -24
-18 -24 -28 0 -37 9 -22 23 8 8 12 8 40 1z m-569 -36 c-19 -29 -34 -33 -42
-12 -4 11 -2 15 8 11 8 -3 17 1 20 9 3 8 11 14 17 14 8 0 7 -7 -3 -22z m566
-49 c-3 -5 -17 -6 -32 -3 -35 9 -39 13 -23 24 16 9 63 -9 55 -21z m-549 1 c-3
-5 -1 -11 5 -15 5 -3 10 -12 10 -20 0 -19 -39 -30 -54 -15 -8 10 -6 12 12 7
15 -4 22 -1 22 10 0 9 -6 13 -14 10 -8 -3 -20 1 -28 10 -11 14 -10 15 10 9 17
-6 22 -3 22 9 0 9 5 13 10 10 6 -4 8 -10 5 -15z m105 -128 c1 -14 4 -13 19 6
26 30 31 28 31 -10 0 -30 -1 -31 -16 -12 -15 18 -15 18 -9 -4 4 -13 1 -29 -5
-37 -9 -11 -9 -15 -1 -15 6 0 11 -4 11 -10 0 -5 -12 -10 -26 -10 -17 0 -24 4
-21 13 16 43 18 59 8 53 -7 -5 -11 4 -11 24 0 32 20 34 20 2z m322 -14 c-7 -7
-12 -8 -12 -2 0 14 12 26 19 19 2 -3 -1 -11 -7 -17z m-137 -58 c3 0 5 8 3 17
-4 23 25 28 45 8 9 -8 30 -15 47 -15 18 0 29 -4 25 -10 -3 -5 -22 -10 -41 -10
-20 0 -42 -7 -50 -15 -20 -20 -34 -19 -34 3 0 12 -2 14 -8 4 -5 -7 -22 -15
-38 -18 -16 -3 -30 -7 -32 -9 -2 -2 -17 1 -33 7 -28 9 -29 12 -15 27 9 10 16
23 16 29 0 15 6 15 31 2 14 -8 19 -7 19 2 0 10 2 10 9 0 7 -12 11 -11 22 1 12
13 15 13 21 -4 4 -10 10 -19 13 -19z m155 31 c0 -6 -4 -13 -10 -16 -5 -3 -10
1 -10 9 0 9 5 16 10 16 6 0 10 -4 10 -9z m-285 -21 c-3 -5 -10 -10 -16 -10 -5
0 -9 5 -9 10 0 6 7 10 16 10 8 0 12 -4 9 -10z m-95 -185 c-10 -12 -5 -17 25
-30 68 -28 153 -36 225 -21 36 8 78 19 94 25 23 9 26 14 16 26 -11 13 -6 15
35 15 38 0 45 -3 36 -13 -8 -10 -7 -17 1 -25 9 -9 5 -12 -18 -12 -18 0 -34 -7
-41 -20 -20 -32 -143 -64 -217 -57 -77 8 -154 34 -169 58 -7 12 -23 19 -41 19
-22 0 -26 3 -17 13 8 10 7 17 -1 25 -9 9 -1 12 36 12 41 0 47 -2 36 -15z"/>
<path d="M537 753 c-12 -11 -8 -23 8 -23 8 0 15 7 15 15 0 16 -12 20 -23 8z"/>
<path d="M665 270 c-3 -5 -1 -10 4 -10 6 0 11 5 11 10 0 6 -2 10 -4 10 -3 0
-8 -4 -11 -10z"/>
<path d="M1213 1183 c-18 -7 -16 -30 3 -37 20 -8 3438 -8 3458 0 21 8 21 30 0
38 -19 7 -3443 7 -3461 -1z"/>
<path d="M104 1080 c0 -52 1 -74 3 -47 2 26 2 68 0 95 -2 26 -3 4 -3 -48z"/>
<path d="M971 799 c-13 -195 -22 -363 -19 -374 2 -11 14 143 27 341 13 199 22
367 19 374 -2 7 -14 -146 -27 -341z"/>
<path d="M1210 920 c0 -63 2 -70 20 -70 13 0 20 7 20 20 0 15 7 20 28 20 31 0
62 26 62 52 0 28 -35 48 -83 48 l-47 0 0 -70z m85 20 c0 -8 -10 -16 -22 -18
-18 -3 -23 2 -23 18 0 16 5 21 23 18 12 -2 22 -10 22 -18z"/>
<path d="M1350 920 l0 -70 55 0 c42 0 55 3 55 15 0 10 -11 15 -35 15 -19 0
-35 5 -35 10 0 6 14 10 30 10 20 0 30 5 30 15 0 10 -10 15 -30 15 -20 0 -30 5
-30 15 0 10 11 15 35 15 24 0 35 5 35 15 0 12 -13 15 -55 15 l-55 0 0 -70z"/>
<path d="M1490 920 c0 -63 2 -70 20 -70 16 0 20 7 20 32 0 32 0 32 16 10 19
-27 41 -28 49 -2 10 30 25 24 25 -10 0 -20 5 -30 15 -30 12 0 15 15 15 71 0
61 -2 70 -17 67 -10 -2 -27 -21 -39 -42 l-22 -39 -23 42 c-14 23 -32 41 -41
41 -16 0 -18 -10 -18 -70z"/>
<path d="M1680 920 l0 -70 55 0 c42 0 55 3 55 15 0 10 -11 15 -35 15 -19 0
-35 5 -35 10 0 6 14 10 30 10 20 0 30 5 30 15 0 10 -10 15 -30 15 -20 0 -30 5
-30 15 0 10 11 15 35 15 24 0 35 5 35 15 0 12 -13 15 -55 15 l-55 0 0 -70z"/>
<path d="M1810 920 c0 -63 2 -70 20 -70 13 0 20 7 20 20 0 11 6 20 13 20 7 0
18 -9 25 -20 7 -11 22 -20 33 -20 20 0 20 1 6 24 -14 21 -14 26 -2 36 40 34 0
80 -68 80 l-47 0 0 -70z m85 20 c0 -8 -10 -16 -22 -18 -18 -3 -23 2 -23 18 0
16 5 21 23 18 12 -2 22 -10 22 -18z"/>
<path d="M1960 920 c0 -63 2 -70 20 -70 18 0 20 7 20 70 0 63 -2 70 -20 70
-18 0 -20 -7 -20 -70z"/>
<path d="M2030 920 c0 -63 2 -70 20 -70 16 0 20 7 20 37 l0 36 28 -36 c15 -20
35 -36 45 -37 15 0 17 10 17 70 0 63 -2 70 -20 70 -16 0 -20 -7 -20 -37 l0
-36 -27 36 c-16 20 -36 36 -45 37 -16 0 -18 -10 -18 -70z"/>
<path d="M2180 975 c0 -8 9 -15 20 -15 18 0 20 -7 20 -55 0 -48 2 -55 20 -55
18 0 20 7 20 55 0 48 2 55 20 55 11 0 20 7 20 15 0 12 -13 15 -60 15 -47 0
-60 -3 -60 -15z"/>
<path d="M2322 923 c-25 -58 -28 -69 -14 -72 9 -2 21 4 27 13 15 20 64 21 71
1 5 -13 44 -23 44 -11 0 2 -14 33 -30 70 -40 88 -57 88 -98 -1z m62 2 c3 -9 0
-15 -9 -15 -8 0 -15 7 -15 15 0 8 4 15 9 15 5 0 11 -7 15 -15z"/>
<path d="M2460 920 c0 -63 2 -70 20 -70 15 0 20 7 20 25 0 20 5 25 25 25 20 0
25 -5 25 -25 0 -18 5 -25 20 -25 18 0 20 7 20 70 0 63 -2 70 -20 70 -16 0 -20
-7 -20 -30 0 -25 -4 -30 -25 -30 -21 0 -25 5 -25 30 0 23 -4 30 -20 30 -18 0
-20 -7 -20 -70z"/>
<path d="M2680 920 c0 -63 2 -70 20 -70 13 0 20 7 20 19 0 31 16 33 34 6 13
-20 25 -25 55 -25 25 0 41 5 45 15 7 20 56 19 71 -1 6 -9 18 -15 27 -13 14 3
11 14 -14 72 -40 88 -59 89 -95 7 -14 -33 -29 -60 -32 -60 -4 0 -17 13 -28 28
l-21 29 25 31 c21 28 22 32 7 32 -10 0 -31 -12 -46 -27 l-28 -27 0 27 c0 20
-5 27 -20 27 -18 0 -20 -7 -20 -70z m220 5 c0 -8 -7 -15 -15 -15 -9 0 -12 6
-9 15 4 8 10 15 15 15 5 0 9 -7 9 -15z"/>
<path d="M2980 920 l0 -70 48 0 c61 0 92 20 75 48 -6 11 -9 29 -6 41 9 34 -14
51 -68 51 l-49 0 0 -70z m80 25 c0 -8 -9 -15 -20 -15 -11 0 -20 7 -20 15 0 8
9 15 20 15 11 0 20 -7 20 -15z m10 -55 c0 -5 -11 -10 -25 -10 -14 0 -25 5 -25
10 0 6 11 10 25 10 14 0 25 -4 25 -10z"/>
<path d="M3130 940 c0 -57 24 -90 65 -90 41 0 65 33 65 90 0 43 -3 50 -19 50
-17 0 -20 -8 -23 -52 -3 -45 -6 -53 -23 -53 -17 0 -20 8 -23 53 -3 44 -6 52
-23 52 -16 0 -19 -7 -19 -50z"/>
<path d="M3290 920 c0 -63 2 -70 20 -70 13 0 20 7 20 20 0 14 7 20 23 20 26 0
57 28 57 52 0 27 -35 48 -78 48 l-42 0 0 -70z m75 20 c0 -8 -8 -16 -17 -18
-13 -2 -18 3 -18 18 0 15 5 20 18 18 9 -2 17 -10 17 -18z"/>
<path d="M3442 923 c-25 -58 -28 -69 -14 -72 9 -2 21 4 27 13 15 20 64 21 71
1 5 -13 44 -23 44 -11 0 2 -14 33 -30 70 -40 88 -57 88 -98 -1z m62 2 c3 -9 0
-15 -9 -15 -8 0 -15 7 -15 15 0 8 4 15 9 15 5 0 11 -7 15 -15z"/>
<path d="M3570 975 c0 -8 9 -15 20 -15 18 0 20 -7 20 -55 0 -48 2 -55 20 -55
18 0 20 7 20 55 0 48 2 55 20 55 11 0 20 7 20 15 0 12 -13 15 -60 15 -47 0
-60 -3 -60 -15z"/>
<path d="M3700 920 l0 -70 55 0 c42 0 55 3 55 15 0 10 -11 15 -35 15 -19 0
-35 5 -35 10 0 6 14 10 30 10 20 0 30 5 30 15 0 10 -10 15 -30 15 -20 0 -30 5
-30 15 0 10 11 15 35 15 24 0 35 5 35 15 0 12 -13 15 -55 15 l-55 0 0 -70z"/>
<path d="M3840 920 c0 -63 2 -70 20 -70 16 0 20 7 20 37 l0 36 28 -36 c15 -20
35 -36 45 -37 15 0 17 10 17 70 0 63 -2 70 -20 70 -16 0 -20 -7 -20 -37 l0
-36 -27 36 c-16 20 -36 36 -45 37 -16 0 -18 -10 -18 -70z"/>
<path d="M4070 924 c-16 -37 -30 -68 -30 -70 0 -12 39 -2 44 11 7 20 56 19 71
-1 6 -9 18 -15 27 -13 14 3 11 14 -14 72 -41 89 -58 89 -98 1z m60 1 c0 -8 -7
-15 -15 -15 -9 0 -12 6 -9 15 4 8 10 15 15 15 5 0 9 -7 9 -15z"/>
<path d="M4225 965 c-14 -13 -25 -33 -25 -45 0 -46 65 -83 114 -64 21 8 22 64
1 64 -9 0 -15 -9 -15 -21 0 -15 -5 -20 -21 -17 -57 8 -47 75 9 71 34 -3 53 14
31 28 -26 17 -69 9 -94 -16z"/>
<path d="M4380 924 c-16 -37 -30 -68 -30 -70 0 -12 39 -2 44 11 3 9 18 15 35
15 16 0 31 -6 35 -15 3 -10 19 -15 46 -15 38 0 40 1 41 33 0 32 0 32 16 10 21
-30 39 -29 57 5 l15 27 1 -37 c0 -27 4 -38 15 -38 12 0 15 14 15 70 0 83 -14
91 -49 29 l-24 -41 -26 41 c-14 22 -34 41 -43 41 -15 0 -18 -10 -19 -67 l0
-68 -31 68 c-41 89 -58 89 -98 1z m60 1 c0 -8 -7 -15 -15 -15 -9 0 -12 6 -9
15 4 8 10 15 15 15 5 0 9 -7 9 -15z"/>
<path d="M113 905 c0 -44 2 -61 4 -37 2 23 2 59 0 80 -2 20 -4 1 -4 -43z"/>
<path d="M123 745 c-1 -44 4 -161 10 -260 l12 -180 75 -38 c215 -108 323 -156
334 -150 6 4 97 44 201 89 l190 81 1 54 1 54 -6 -50 -6 -50 -190 -82 c-104
-45 -197 -82 -205 -82 -8 0 -98 41 -200 92 l-185 92 -12 205 c-18 299 -19 316
-20 225z"/>
<path d="M2620 645 c0 -68 2 -75 20 -75 15 0 20 7 20 25 0 14 5 25 11 25 6 0
20 -11 31 -25 15 -19 29 -25 58 -25 24 0 40 5 44 15 3 9 18 15 40 15 21 0 36
-6 40 -15 3 -8 14 -15 25 -15 19 0 18 5 -13 73 -46 100 -63 101 -104 6 l-32
-72 -30 39 -29 39 32 33 c26 27 28 32 12 32 -11 0 -34 -14 -52 -32 l-33 -32 0
32 c0 25 -4 32 -20 32 -18 0 -20 -7 -20 -75z m234 9 c9 -23 8 -24 -13 -24 -14
0 -18 5 -14 20 6 24 19 26 27 4z"/>
<path d="M2940 645 c0 -68 2 -75 20 -75 16 0 20 7 20 38 l0 37 25 -30 25 -30
25 30 25 30 0 -37 c0 -31 4 -38 20 -38 18 0 20 7 20 75 0 66 -2 75 -18 75 -11
0 -27 -16 -41 -40 -12 -22 -26 -40 -31 -40 -5 0 -19 18 -31 40 -14 24 -30 40
-41 40 -16 0 -18 -9 -18 -75z"/>
<path d="M3166 648 c-27 -60 -30 -74 -17 -77 8 -2 20 4 26 13 15 20 74 21 81
1 4 -8 15 -15 26 -15 12 0 18 5 15 13 -66 165 -82 172 -131 65z m59 -16 c-22
-5 -27 1 -19 23 7 17 8 17 21 -1 12 -17 12 -19 -2 -22z"/>
<path d="M3320 645 c0 -68 2 -75 20 -75 17 0 20 7 20 42 l0 42 36 -42 c53 -62
64 -57 64 33 0 68 -2 75 -20 75 -17 0 -20 -7 -20 -42 l0 -42 -32 42 c-18 23
-40 42 -50 42 -16 0 -18 -10 -18 -75z"/>
<path d="M3530 707 c-84 -43 -17 -162 73 -128 21 8 27 17 27 41 0 25 -4 31
-17 28 -10 -2 -19 -13 -21 -26 -6 -39 -62 -18 -62 24 0 30 41 54 63 35 11 -9
17 -8 27 4 10 12 8 16 -15 25 -34 13 -45 12 -75 -3z"/>
<path d="M3720 645 c0 -68 2 -75 20 -75 16 0 20 7 20 38 l0 37 25 -30 25 -30
25 30 25 30 0 -37 c0 -31 4 -38 20 -38 18 0 20 7 20 75 0 66 -2 75 -18 75 -11
0 -27 -16 -41 -40 -12 -22 -26 -40 -31 -40 -5 0 -19 18 -31 40 -14 24 -30 40
-41 40 -16 0 -18 -9 -18 -75z"/>
<path d="M3930 667 c0 -63 13 -84 57 -93 26 -5 37 -1 57 19 21 21 26 36 26 77
0 43 -3 50 -20 50 -17 0 -20 -7 -20 -49 0 -52 -16 -76 -44 -65 -12 5 -16 19
-16 60 0 47 -2 54 -20 54 -17 0 -20 -7 -20 -53z"/>
<path d="M4100 645 l0 -77 57 4 c62 5 93 30 93 73 0 43 -31 68 -93 73 l-57 4
0 -77z m98 33 c29 -29 7 -78 -35 -78 -21 0 -23 5 -23 45 0 40 2 45 23 45 13 0
28 -5 35 -12z"/>
<path d="M4280 645 c0 -68 2 -75 20 -75 18 0 20 7 20 75 0 68 -2 75 -20 75
-18 0 -20 -7 -20 -75z"/>
<path d="M4366 648 c-27 -60 -30 -74 -17 -77 8 -2 20 4 26 13 15 20 74 21 81
1 4 -8 15 -15 26 -15 12 0 18 5 15 13 -66 165 -82 172 -131 65z m59 -16 c-22
-5 -27 1 -19 23 7 17 8 17 21 -1 12 -17 12 -19 -2 -22z"/>
<path d="M4520 645 c0 -68 2 -75 20 -75 13 0 20 7 20 19 0 33 22 36 42 8 12
-17 29 -27 45 -27 l24 0 -30 37 c-17 21 -31 42 -31 47 0 6 12 23 27 38 24 25
24 28 8 28 -11 0 -34 -14 -52 -32 l-33 -32 0 32 c0 25 -4 32 -20 32 -18 0 -20
-7 -20 -75z"/>
<path d="M1210 635 c0 -51 3 -65 15 -65 8 0 15 9 15 19 0 33 22 36 42 8 11
-15 26 -27 34 -27 20 0 18 8 -12 42 l-25 31 27 28 c20 21 23 29 13 29 -9 0
-26 -11 -39 -25 -13 -14 -27 -25 -32 -25 -4 0 -8 11 -8 25 0 16 -6 25 -15 25
-12 0 -15 -14 -15 -65z"/>
<path d="M1350 635 l0 -65 50 0 c55 0 69 17 18 22 -41 4 -45 32 -5 36 37 4 34
22 -4 22 -41 0 -33 24 9 28 51 5 37 22 -18 22 l-50 0 0 -65z"/>
<path d="M1480 635 c0 -51 3 -65 15 -65 11 0 15 11 15 38 l1 37 30 -37 c46
-57 59 -51 59 27 0 51 -3 65 -15 65 -10 0 -15 -11 -15 -35 0 -19 -2 -35 -5
-35 -3 0 -19 16 -36 35 -17 19 -35 35 -40 35 -5 0 -9 -29 -9 -65z"/>
<path d="M1647 642 c-15 -33 -27 -62 -27 -66 0 -13 28 -5 34 9 3 9 18 15 35
15 16 0 31 -6 35 -15 3 -8 12 -15 20 -15 19 0 -35 124 -56 128 -10 2 -24 -18
-41 -56z m53 -8 c0 -8 -7 -14 -15 -14 -15 0 -21 21 -9 33 10 9 24 -2 24 -19z"/>
<path d="M1810 690 c-31 -7 -48 -50 -33 -83 13 -28 55 -40 90 -26 26 10 32 49
8 49 -8 0 -15 -7 -15 -16 0 -11 -8 -14 -27 -12 -24 3 -28 8 -28 33 0 27 3 30
38 33 20 2 37 7 37 11 0 12 -40 18 -70 11z"/>
<path d="M1937 642 c-15 -33 -27 -62 -27 -66 0 -13 28 -5 34 9 3 9 18 15 35
15 16 0 31 -6 35 -15 3 -8 12 -15 20 -15 19 0 -35 124 -56 128 -10 2 -24 -18
-41 -56z m53 -8 c0 -8 -7 -14 -15 -14 -15 0 -21 21 -9 33 10 9 24 -2 24 -19z"/>
<path d="M2070 635 c0 -51 3 -65 15 -65 8 0 15 9 15 20 0 11 4 20 10 20 5 0
15 -9 22 -20 7 -11 18 -20 25 -20 15 0 17 16 3 25 -7 4 -5 14 5 28 19 28 19
33 -5 57 -12 12 -33 20 -55 20 l-35 0 0 -65z m75 15 c0 -8 -10 -16 -22 -18
-18 -3 -23 2 -23 18 0 16 5 21 23 18 12 -2 22 -10 22 -18z"/>
<path d="M2200 635 c0 -51 3 -65 15 -65 12 0 15 14 15 65 0 51 -3 65 -15 65
-12 0 -15 -14 -15 -65z"/>
<path d="M2287 642 c-15 -33 -27 -62 -27 -66 0 -13 28 -5 34 9 3 9 18 15 35
15 16 0 31 -6 35 -15 3 -8 12 -15 20 -15 19 0 -35 124 -56 128 -10 2 -24 -18
-41 -56z m53 -8 c0 -8 -7 -14 -15 -14 -15 0 -21 21 -9 33 10 9 24 -2 24 -19z"/>
<path d="M2410 635 c0 -51 3 -65 15 -65 10 0 15 11 15 35 0 19 2 35 5 35 3 0
19 -16 36 -35 17 -19 35 -35 40 -35 5 0 9 29 9 65 0 51 -3 65 -15 65 -11 0
-15 -11 -15 -37 l-1 -38 -30 38 c-46 56 -59 50 -59 -28z"/>
<path d="M1232 363 c-12 -56 -7 -66 16 -35 17 22 17 22 30 2 19 -31 34 -24 17
9 -14 28 -14 30 13 50 16 12 21 20 13 21 -8 0 -25 -10 -38 -22 l-23 -21 0 21
c0 39 -18 23 -28 -25z"/>
<path d="M1385 378 c-4 -18 -9 -41 -11 -50 -5 -15 1 -18 35 -18 23 0 41 5 41
10 0 6 -11 10 -25 10 -14 0 -25 5 -25 10 0 6 11 10 25 10 14 0 25 5 25 10 0 6
-9 10 -20 10 -11 0 -20 5 -20 10 0 6 11 10 25 10 14 0 25 5 25 10 0 6 -15 10
-34 10 -31 0 -35 -3 -41 -32z"/>
<path d="M1530 390 c-39 -39 -10 -90 44 -76 33 8 26 25 -9 19 -17 -4 -27 0
-31 11 -8 22 15 48 40 44 12 -1 22 2 24 7 6 20 -47 16 -68 -5z"/>
<path d="M1671 363 c-19 -31 -26 -49 -19 -52 7 -2 14 1 16 8 5 15 45 14 60 -1
6 -6 14 -10 16 -7 9 9 -18 99 -30 99 -6 0 -26 -21 -43 -47z m43 2 c3 -9 0 -15
-9 -15 -9 0 -12 6 -9 15 4 8 7 15 9 15 2 0 5 -7 9 -15z"/>
<path d="M1826 393 c-13 -49 -17 -83 -8 -83 5 0 13 12 17 27 6 26 7 27 17 8 6
-11 12 -22 14 -24 2 -2 13 7 24 20 l20 24 -6 -27 c-4 -17 -2 -28 4 -28 11 0
34 91 25 100 -3 3 -18 -10 -34 -29 l-29 -35 -11 32 c-12 35 -25 41 -33 15z"/>
<path d="M2001 363 c-19 -31 -26 -49 -19 -52 7 -2 14 1 16 8 5 15 45 14 60 -1
6 -6 14 -10 16 -7 9 9 -18 99 -30 99 -6 0 -26 -21 -43 -47z m43 2 c3 -9 0 -15
-9 -15 -9 0 -12 6 -9 15 4 8 7 15 9 15 2 0 5 -7 9 -15z"/>
<path d="M2130 400 c0 -5 7 -10 16 -10 13 0 15 -7 9 -40 -4 -25 -3 -40 3 -40
6 0 13 18 17 40 5 30 11 40 26 40 10 0 19 5 19 10 0 6 -20 10 -45 10 -25 0
-45 -4 -45 -10z"/>
<path d="M2272 360 c-24 -37 -28 -50 -17 -50 8 0 15 5 15 10 0 15 58 12 63 -2
2 -7 7 -10 11 -7 10 10 -15 99 -28 99 -6 0 -26 -23 -44 -50z m48 5 c0 -8 -7
-15 -15 -15 -9 0 -12 6 -9 15 4 8 10 15 15 15 5 0 9 -7 9 -15z"/>
<path d="M2415 378 c-4 -18 -9 -41 -12 -52 -3 -12 -1 -17 8 -14 8 3 16 18 19
34 l6 29 17 -32 c10 -18 22 -33 26 -33 5 0 12 15 16 33 4 17 9 40 11 50 3 9 1
17 -5 17 -6 0 -14 -15 -19 -32 l-9 -33 -17 33 c-9 17 -21 32 -25 32 -5 0 -12
-15 -16 -32z"/>
<path d="M2665 398 c-9 -31 -15 -88 -9 -88 4 0 13 8 20 18 13 16 15 16 28 0
22 -30 41 -22 21 8 -16 25 -16 27 6 50 28 30 17 31 -23 3 l-30 -22 7 22 c4 13
2 21 -5 21 -6 0 -12 -6 -15 -12z"/>
<path d="M2811 363 c-19 -31 -26 -49 -19 -52 7 -2 14 1 16 8 5 15 45 14 60 -1
6 -6 14 -10 16 -7 9 9 -18 99 -30 99 -6 0 -26 -21 -43 -47z m43 2 c3 -9 0 -15
-9 -15 -9 0 -12 6 -9 15 4 8 7 15 9 15 2 0 5 -7 9 -15z"/>
<path d="M2955 378 c-4 -18 -9 -41 -11 -50 -3 -10 -1 -18 5 -18 6 0 14 12 17
26 6 24 8 25 17 8 16 -30 17 -30 38 -4 l21 25 -6 -27 c-7 -30 9 -39 18 -10 24
85 14 105 -25 50 l-23 -31 -15 31 c-19 41 -28 40 -36 0z"/>
<path d="M3141 363 c-19 -31 -26 -49 -19 -52 7 -2 14 1 16 8 5 15 45 14 60 -1
6 -6 14 -10 16 -7 9 9 -18 99 -30 99 -6 0 -26 -21 -43 -47z m43 2 c3 -9 0 -15
-9 -15 -9 0 -12 6 -9 15 4 8 7 15 9 15 2 0 5 -7 9 -15z"/>
<path d="M3285 378 c-4 -18 -9 -41 -12 -52 -3 -12 -1 -17 8 -14 8 3 16 18 19
34 l6 29 17 -32 c10 -18 22 -33 26 -33 5 0 12 15 16 33 4 17 9 40 11 50 3 9 1
17 -5 17 -6 0 -14 -15 -19 -32 l-9 -33 -17 33 c-9 17 -21 32 -25 32 -5 0 -12
-15 -16 -32z"/>
<path d="M3451 391 c-27 -27 -27 -57 0 -71 29 -16 69 -4 69 20 0 11 -4 20 -10
20 -5 0 -10 -7 -10 -15 0 -20 -39 -20 -46 0 -9 21 15 47 40 43 12 -1 22 2 24
7 5 20 -47 16 -67 -4z"/>
<path d="M3675 378 c-4 -18 -9 -41 -11 -50 -3 -10 -1 -18 5 -18 6 0 14 12 17
26 6 24 8 25 17 8 16 -30 17 -30 38 -4 l21 25 -6 -27 c-7 -30 9 -39 18 -10 24
85 14 105 -25 50 l-23 -31 -15 31 c-19 41 -28 40 -36 0z"/>
<path d="M3861 363 c-19 -31 -26 -49 -19 -52 7 -2 14 1 16 8 5 15 45 14 60 -1
6 -6 14 -10 16 -7 9 9 -18 99 -30 99 -6 0 -26 -21 -43 -47z m43 2 c3 -9 0 -15
-9 -15 -9 0 -12 6 -9 15 4 8 7 15 9 15 2 0 5 -7 9 -15z"/>
<path d="M4011 391 c-27 -27 -27 -57 0 -71 29 -16 69 -4 69 20 0 11 -4 20 -10
20 -5 0 -10 -7 -10 -15 0 -20 -39 -20 -46 0 -9 21 15 47 40 43 12 -1 22 2 24
7 5 20 -47 16 -67 -4z"/>
<path d="M4155 378 c-4 -18 -9 -41 -11 -50 -5 -15 1 -18 35 -18 23 0 41 5 41
10 0 6 -11 10 -25 10 -14 0 -25 5 -25 10 0 6 11 10 25 10 14 0 25 5 25 10 0 6
-9 10 -20 10 -11 0 -20 5 -20 10 0 6 11 10 25 10 14 0 25 5 25 10 0 6 -15 10
-34 10 -31 0 -35 -3 -41 -32z"/>
<path d="M4292 363 c-12 -56 -7 -66 16 -35 17 22 17 22 30 2 19 -31 34 -24 17
9 -14 28 -14 30 13 50 16 12 21 20 13 21 -8 0 -25 -10 -38 -22 l-23 -21 0 21
c0 39 -18 23 -28 -25z"/>
</g>
</svg>
